<?xml version="1.0" encoding="UTF-8"?>
<svg id="Layer_2" data-name="Layer 2" xmlns="http://www.w3.org/2000/svg" viewBox="0 0 479.47 237.26">
  <defs>
    <style>
      .cls-1, .cls-2, .cls-3, .cls-4, .cls-5, .cls-6, .cls-7, .cls-8, .cls-9, .cls-10, .cls-11, .cls-12, .cls-13 {
        stroke-miterlimit: 10;
      }

      .cls-1, .cls-2, .cls-4, .cls-5, .cls-6, .cls-7, .cls-8, .cls-9, .cls-10, .cls-11, .cls-12, .cls-13 {
        stroke: #231f20;
      }

      .cls-1, .cls-3, .cls-6 {
        fill: none;
      }

      .cls-14 {
        letter-spacing: -.01em;
      }

      .cls-2 {
        fill: #158642;
      }

      .cls-3 {
        stroke: #000;
      }

      .cls-4 {
        fill: #fff;
      }

      .cls-4, .cls-6 {
        stroke-width: 1.5px;
      }

      .cls-5 {
        fill: #006838;
      }

      .cls-7 {
        fill: #aa6f48;
      }

      .cls-8, .cls-15 {
        fill: #262a62;
      }

      .cls-9 {
        fill: #f7941d;
      }

      .cls-10 {
        fill: #007b44;
      }

      .cls-16 {
        fill: #231f20;
        font-family: JosefinSans-Bold, 'Josefin Sans';
        font-size: 14px;
        font-weight: 700;
      }

      .cls-11 {
        fill: #ab734c;
      }

      .cls-12 {
        fill: #5a9dd5;
      }

      .cls-13 {
        fill: #e11f27;
      }

      .cls-17 {
        letter-spacing: -.03em;
      }

      .cls-18 {
        letter-spacing: -.02em;
      }
    </style>
  </defs>
  <g id="Lag_1" data-name="Lag 1">
    <path class="cls-10" d="m284.02,68.41c-.19-1.75-.5-5.4.11-7.67.1-.38.33-1.23.73-1.34.41-.12.78.58.9.8,1.04,1.94.51,4.93.61,4.94.13,0,1.11-4.62,1.93-7.16.11-.34.33-1,.75-1.17.41-.17.88.17,1.1.64.32.66.11,1.56,0,2.07-.71,3-1.55,6.1-1.41,6.19.15.1,1.17-3.25,2.99-3.84.13-.04.95-.3,1.28.26.36.6-.05,1.75-.12,1.96-.22.62-.45.82-1.22,1.87-.23.31-.58.83-1.29,1.87-.35.52-.86,1.28-1.46,2.24"/>
    <path class="cls-7" d="m214.17,81.02v4.83h-6.09v-4.83c0-1.46,1.12-2.64,2.49-2.64h1.1c1.38,0,2.49,1.18,2.49,2.64Z"/>
    <rect class="cls-7" x="208.08" y="104.44" width="6.09" height="4.05"/>
    <rect class="cls-7" x="208.08" y="127.09" width="6.09" height="4.05"/>
    <path class="cls-7" d="m299.47,81.02v4.83h-6.08v-4.83c0-1.46,1.12-2.64,2.49-2.64h1.1c1.38,0,2.49,1.18,2.49,2.64Z"/>
    <rect class="cls-7" x="293.39" y="104.44" width="6.08" height="4.05"/>
    <rect class="cls-7" x="293.39" y="127.09" width="6.08" height="4.05"/>
    <rect class="cls-11" x="204.69" y="131.14" width="99.03" height="18.25"/>
    <rect class="cls-11" x="204.69" y="108.67" width="99.03" height="18.25"/>
    <path class="cls-1" d="m211.12,93.25c-1.05,0-1.9.85-1.9,1.9s.85,1.89,1.9,1.89,1.89-.85,1.89-1.89-.84-1.9-1.89-1.9Z"/>
    <path class="cls-1" d="m298.33,95.23c0,1.05-.84,1.89-1.89,1.89s-1.9-.84-1.9-1.89.85-1.89,1.9-1.89,1.89.84,1.89,1.89Z"/>
    <path class="cls-6" d="m213.02,95.15c0,1.04-.84,1.89-1.89,1.89s-1.9-.85-1.9-1.89.85-1.9,1.9-1.9,1.89.85,1.89,1.9Z"/>
    <path class="cls-6" d="m298.33,95.23c0,1.05-.84,1.89-1.89,1.89s-1.9-.84-1.9-1.89.85-1.89,1.9-1.89,1.89.84,1.89,1.89Z"/>
    <path class="cls-1" d="m.31,63.54c3.77,2.99,8.83,7.34,14.28,13.13,3.42,3.63,6.36,6.76,9.13,10.85,2.63,3.89,5.38,9.07,9.94,27.07,1.63,6.46,3.57,14.86,5.38,24.82,21.74,0,43.48-.01,65.22-.02"/>
    <path class="cls-12" d="m25.94,90.26c28.91-.13,57.83-.26,86.74-.39l-2.52,34.52c-24.68.23-49.35.45-74.03.68-1.17-5.73-2.66-11.9-4.59-18.4-1.75-5.91-3.65-11.38-5.59-16.4Z"/>
    <path class="cls-8" d="m48.07,139.5h17.12c.06.54.41,4.7-3.01,7.49-.57.46-2.54,2.03-5.55,2.1-.35,0-2.44.04-4.42-1.04-2.9-1.58-4.44-4.92-4.14-8.56Z"/>
    <path class="cls-8" d="m78.5,139.5h17.12c.06.54.41,4.7-3.01,7.49-.57.46-2.54,2.03-5.55,2.1-.35,0-2.44.04-4.42-1.04-2.9-1.58-4.44-4.92-4.14-8.56Z"/>
    <path class="cls-8" d="m83.38,67.39c-4.7,5.22-9.4,10.44-14.1,15.67-4.46-5.23-8.93-10.45-13.39-15.67h6.58v-16.93h14.33v16.93h6.58Z"/>
    <rect class="cls-8" x="401.58" y="128.12" width="56.76" height="20.36"/>
    <path class="cls-12" d="m401.58,128.12c-2.12-8.94-4.24-17.87-6.36-26.81-1.42-.66-9.57-4.57-12.59-13.96-.51-1.57-3.43-10.65,2.12-18.51.57-.81,4.84-6.67,11.68-7.59,6.29-.85,13.96,2.58,13.96,2.58h0s3.34-13.2,18.51-13.35c15.17-.15,19.57,13.2,19.57,13.2,8.13-4.31,17.56-3.61,23.77,1.62,6.52,5.49,6.72,13.65,6.73,15.22.02,8.55-5.44,16.6-13.96,20.79-2.22,8.94-4.45,17.87-6.67,26.81"/>
    <path class="cls-10" d="m273.8,77.23c.99-1.19,2.96-3.7,3.34-5.68.06-.33.21-1.07-.16-1.36-.38-.3-1.08.02-1.31.13-1.97.89-2.76,3.35-2.86,3.31-.14-.06.92-3.95,1.2-6.24.04-.3.1-.9-.26-1.24-.35-.33-1-.32-1.44-.1-.63.33-.82,1.09-.93,1.52-.61,2.56-1.12,5.26-1.31,5.26-.2,0,.24-2.98-1.41-4.34-.12-.1-.86-.71-1.46-.47-.64.25-.74,1.3-.76,1.5-.05.56.1.83.44,2,.1.35.24.91.51,2.03.14.56.32,1.38.52,2.38"/>
    <path class="cls-9" d="m291.7,74.21c-.2.93-.43,1.85-.67,2.8-.83,3.18-1.78,6.19-2.83,9.02h-10.33c.27-1.92.5-3.62.7-5.14.19-1.43.34-2.7.47-3.8.49-4.25.58-6.06.58-6.06.58-.53,3.05-2.69,6.2-2.2,3.9.61,5.66,4.8,5.89,5.38Z"/>
    <path class="cls-1" d="m279.04,77.08c1.2.22,2.39.43,3.59.65"/>
    <line class="cls-1" x1="278.58" y1="80.88" x2="281.05" y2="81.26"/>
    <line class="cls-1" x1="286.1" y1="80.02" x2="289.69" y2="80.57"/>
    <line class="cls-1" x1="288.08" y1="75.19" x2="291.31" y2="75.69"/>
    <path class="cls-13" d="m276.65,83.24c0,.98-.18,1.92-.52,2.78h-14.26c-.34-.86-.52-1.8-.52-2.78,0-3.83,2.82-7.01,6.5-7.56.38-.06.75-.09,1.15-.09,4.22,0,7.65,3.43,7.65,7.65Z"/>
    <path class="cls-1" d="m263.35,81c-.18.61-.48,1.95.08,3.49.26.73.64,1.29.96,1.68"/>
    <path class="cls-2" d="m251.01,82.24c.47,1.03.17,2.57-.61,3.78h-9.44c.19-.34.97-1.84.95-3.69,0-.25-.02-.5-.05-.75-.04-.28-.07-.6-.16-.93-.11-.47-.3-.97-.68-1.44-.96-1.22-1.98-.82-2.89-1.86-.26-.3-.61-.84-.77-4.04-.11-2.14.02-2.41-.05-4.23-.11-2.63-.16-3.95-.78-5.26-.54-1.12-1.35-2.84-3-3.4-.73-.25-1.6-.26-1.98-.95-.06-.1-.17-.34-.16-.78h0c0-.12.02-.25.03-.4.2-1.3.97-1.75,1.54-2.78,1.06-1.86-.08-2.88.92-4.13.8-.98,2.31-1.36,3.5-1.09,1.3.3,1.98,1.33,3.21,3.19.85,1.3,1.35,2.48,1.9,3.79.88,2.08.62,1.99,1.02,2.66,1.52,2.62,4.16,1.78,6.53,4.46.37.42,1.79,2.02,1.85,4.24.06,2.07-1.1,3.84-1.89,5.05-1.42,2.17-2.46,2.47-2.43,3.73.03,1.14.89,2.15,1.64,3.02,1.05,1.24,1.47,1.1,1.8,1.82Z"/>
    <path class="cls-1" d="m245.39,79.01c-.05.33-.3,1.56-1.43,2.47-.85.69-1.76.83-2.13.86"/>
    <path class="cls-1" d="m236.67,54.87c1.71,3.54,3.67,8.6,4.6,14.92.61,4.16.63,7.85.43,10.86"/>
    <path class="cls-1" d="m246.52,67.35c-.68.16-2.27.64-3.6,2.09-.78.84-1.18,1.71-1.4,2.3"/>
    <path class="cls-1" d="m239.18,72.58c.36.15,1.06.5,1.67,1.22.64.76.86,1.53.94,1.92"/>
    <path class="cls-11" d="m204.69,86.02v18.25h99.03v-18.25h-99.03Zm6.43,11.02c-1.05,0-1.9-.85-1.9-1.89s.85-1.9,1.9-1.9,1.89.85,1.89,1.9-.84,1.89-1.89,1.89Zm85.31.08c-1.05,0-1.9-.84-1.9-1.89s.85-1.89,1.9-1.89,1.89.84,1.89,1.89-.84,1.89-1.89,1.89Z"/>
    <path class="cls-2" d="m218.82,85.79c-.33-.48.63-1.11.66-2.36.01-.79-.37-1.49-1.27-2.8-1.9-2.78-2.78-3.35-3.91-4.98-1.34-1.93-2.51-3.61-2.34-5.66.23-2.66,2.5-3.43,2.34-6.27-.07-1.14-.44-1.09-.7-2.66-.11-.67-.57-3.3.65-5.9.97-2.08,3.26-4.72,6.44-4.94,2.61-.19,4.8,1.34,5.54,1.85.18.12.34.25.48.37.59.47.97.88,1.06.97.36.37,1.37,1.24,4.22,3.38-.16.25-.35.62-.48,1.09-.12.45-.21.79-.09,1.2.17.55.6.84.72.91.27.17.43.16.87.28,0,0,.7.19,1.3.53.71.4,1.1.95,1.42,1.4.47.66.68,1.24.89,1.81.07.2.35.98.53,2.23.09.6.11,1.24.16,2.51.06,1.57.06,2.84.06,3.27,0,.93-.01.92,0,1.48.03,1.48.13,2.22.34,2.92.26.88.5,1.12.66,1.24.14.11.44.24,1.02.48.55.23.65.25.87.38,0,0,.4.25.76.68.8.97.91,2.95.45,4.58-.25.88-.54,1.24-.79,1.45-.5.43-1.09.51-1.33.54-3.34.4-6.01.23-6.01.23-2.68-.17-5.37,0-8.05,0-1.69,0-2.54,0-2.54,0-.65.01-1.1,0-1.99,0-1.59-.01-1.81-.05-1.93-.23Z"/>
    <path class="cls-5" d="m232.35,86.02h-2.49l-1.93-6.13-1.33-4.24-3.18-10.26-3.02-9.72,3.87,9.83s.02.08.04.11l4.72,12,3.31,8.41Z"/>
    <path class="cls-1" d="m228.01,61.33c-.39.14-1.68.64-2.6,1.76,0,0-.3.37-1.1,2.03,0,.02-.03.07-.04.13-.02.14.01.26.05.35"/>
    <path class="cls-1" d="m218.47,64.92c.21-.15,1.36-.97,2.9-.68,1.13.21,1.82.89,2.05,1.15"/>
    <path class="cls-1" d="m233.32,70.72c-.71.49-1.76,1.35-2.67,2.72-1.11,1.66-1.47,3.26-1.6,4.16"/>
    <path class="cls-1" d="m219.08,75.99c.85-.13,2.27-.22,3.89.25,2.89.85,4.47,2.93,4.97,3.65"/>
    <path class="cls-1" d="m232.88,86.02c.16-.71.43-1.57.89-2.49.71-1.41,1.6-2.37,2.21-2.95"/>
    <path class="cls-3" d="m286.65,29.2c5.92-5.02,26.39-21.12,57.24-22.12,32.81-1.06,55.23,15.68,61.04,20.3"/>
    <rect class="cls-15" x="440.58" y="102.1" width="2.67" height="27.93" transform="translate(9.69 -32.06) rotate(4.2)"/>
    <rect class="cls-15" x="417.36" y="102.1" width="2.67" height="27.93" transform="translate(844.75 201.14) rotate(175.8)"/>
    <circle class="cls-4" cx="211.35" cy="117.99" r="1.9"/>
    <circle class="cls-4" cx="211.35" cy="140.16" r="1.9"/>
    <circle class="cls-4" cx="296.66" cy="140.24" r="1.9"/>
    <circle class="cls-4" cx="296.66" cy="118.07" r="1.9"/>
    <path class="cls-3" d="m373.58,19.01c24.32,9.94,30.35,10.09,31.35,8.37.83-1.44-1.89-4.11-6.82-11.61-4.22-6.42-7.15-11.95-8.94-15.55"/>
    <path class="cls-3" d="m76.97,205.58c5.8,5.16,25.87,21.75,56.69,23.49,32.77,1.85,55.6-14.33,61.52-18.82"/>
    <path class="cls-3" d="m163.63,217.87c24.55-9.35,30.59-9.36,31.54-7.61.79,1.46-1.99,4.06-7.1,11.45-4.38,6.32-7.44,11.77-9.31,15.33"/>
    <text class="cls-16" transform="translate(50.43 174.81)"><tspan x="0" y="0">Bestil</tspan></text>
    <text class="cls-16" transform="translate(183.34 174.81)"><tspan x="0" y="0">Vi handler </tspan><tspan class="cls-17" x="74.8" y="0">f</tspan><tspan x="80.47" y="0">or dig og </tspan><tspan x="6.26" y="16.8">l</tspan><tspan class="cls-18" x="10.23" y="16.8">e</tspan><tspan class="cls-14" x="17.7" y="16.8">v</tspan><tspan x="24.96" y="16.8">e</tspan><tspan class="cls-18" x="32.7" y="16.8">r</tspan><tspan x="38.16" y="16.8">e lige til dø</tspan><tspan class="cls-18" x="113.96" y="16.8">r</tspan><tspan x="119.42" y="16.8">en</tspan></text>
    <text class="cls-16" transform="translate(392.66 174.98)"><tspan x="0" y="0">Lav maden</tspan></text>
  </g>
</svg>