<?xml version="1.0" encoding="UTF-8"?>
<svg id="Lag_1" data-name="Lag 1" xmlns="http://www.w3.org/2000/svg" viewBox="0 0 565.99 800.06">
  <defs>
    <style>
      .cls-1 {
        letter-spacing: -.04em;
      }

      .cls-2 {
        font-family: Arial-Black, 'Arial Black';
        font-size: 43.21px;
        font-weight: 800;
      }

      .cls-2, .cls-3, .cls-4, .cls-5, .cls-6 {
        fill: #1d1d1b;
      }

      .cls-7 {
        letter-spacing: -.03em;
      }

      .cls-8 {
        fill: #ccb466;
      }

      .cls-9 {
        fill: #7b4d13;
      }

      .cls-4 {
        font-family: ArialMT, Arial;
        font-size: 8.64px;
      }

      .cls-10 {
        fill: #ffde00;
      }

      .cls-10, .cls-11, .cls-12, .cls-13, .cls-14, .cls-15, .cls-16, .cls-17, .cls-5, .cls-18, .cls-19, .cls-20, .cls-21 {
        stroke-miterlimit: 10;
      }

      .cls-10, .cls-11, .cls-12, .cls-13, .cls-14, .cls-21 {
        stroke-width: .5px;
      }

      .cls-10, .cls-11, .cls-12, .cls-13, .cls-15, .cls-16, .cls-17, .cls-5, .cls-18, .cls-20, .cls-21 {
        stroke: #1d1d1b;
      }

      .cls-11, .cls-22 {
        fill: #fff;
      }

      .cls-12 {
        fill: #ededed;
      }

      .cls-13 {
        fill: #95c11f;
      }

      .cls-14 {
        fill: #cbbba0;
        stroke: #1e1e1c;
      }

      .cls-15 {
        fill: #b17134;
      }

      .cls-16 {
        fill: #b2161f;
      }

      .cls-17 {
        fill: #b96e15;
      }

      .cls-6 {
        font-family: KozGoPr6N-Regular-83pv-RKSJ-H, 'Kozuka Gothic Pr6N';
        font-size: 29.17px;
      }

      .cls-18, .cls-19, .cls-21 {
        fill: none;
      }

      .cls-19 {
        stroke: #fff;
      }

      .cls-20 {
        fill: #cac1ba;
        opacity: .38;
      }

      .cls-23 {
        letter-spacing: -.07em;
      }

      .cls-24 {
        fill: #f6f6f6;
        opacity: .61;
      }

      .cls-22 {
        opacity: .86;
      }
    </style>
  </defs>
  <rect class="cls-20" x=".5" y=".5" width="564.99" height="799.06"/>
  <path class="cls-16" d="m356.43,709v16.56h-166.81v-15.61c-.02-.78,0-1.25,0-1.25"/>
  <path class="cls-18" d="m421.97,633.31s-29.12,47.05-61.21,59.31"/>
  <polygon class="cls-5" points="512.53 386.15 320.86 459 512.53 389.27 512.53 386.15"/>
  <path class="cls-8" d="m320.91,458.97c-3.28,9.51-6,21.22,1.78,29.34,3.01,3.14,6.8,5.44,9.66,8.72,1.37,1.57,2.43,3.35,2.85,5.4.59,2.87-.28,5.77-1.63,8.29-2.73,5.07-7.51,8.68-10.18,13.8-1.37,2.62-2.12,5.53-2.68,8.42s-.98,5.53-1.1,8.32c-.25,5.57,1,10.68,4.93,14.77,4.39,4.57,9.24,8.76,13.85,13.11,4.32,4.08,8.91,8.64,9.58,14.85.59,5.37-1.79,11.05-6.21,14.18-.51.36-.72,1.04-.17,1.46s1.54.19,2.08-.19c3.91-2.78,6.5-7.17,7.15-11.92.72-5.22-1.15-10.05-4.41-14.08-3.74-4.62-8.48-8.51-12.8-12.58s-9.46-7.87-10.7-14.03c-1.1-5.48-.02-11.61,1.35-16.95.76-2.98,2.02-5.71,3.87-8.18,1.7-2.26,3.65-4.3,5.4-6.52,3.3-4.17,6.09-9.67,4.14-15.04-1.48-4.06-5.02-6.81-8.24-9.46-1.91-1.57-3.82-3.16-5.37-5.11-1.83-2.31-2.91-5.04-3.33-7.94-.9-6.18.94-12.58,2.94-18.37.54-1.56-2.35-1.49-2.76-.3h0Z"/>
  <path class="cls-8" d="m325.3,456.65c-2.67,9.68-4.7,21.67,3.27,29.48,3.24,3.18,7.32,5.36,10.48,8.61,1.44,1.48,2.63,3.18,3.22,5.18.85,2.91.27,5.95-.93,8.67-2.36,5.37-6.94,9.36-9.42,14.66-1.28,2.74-1.92,5.74-2.33,8.72s-.7,5.85-.69,8.78c.03,5.61,1.39,10.87,5.51,14.89,2.28,2.22,4.8,4.22,7.22,6.28,2.58,2.21,5.16,4.41,7.74,6.62,4.6,3.93,9.5,8.3,10.64,14.56,1,5.49-.97,11.67-5.34,15.23-1.52,1.24.81,2.17,1.91,1.27,3.85-3.13,6.21-7.8,6.57-12.74.39-5.42-1.81-10.27-5.4-14.24-4.13-4.56-9.21-8.35-13.87-12.34-2.49-2.12-5.16-4.15-7.42-6.52-2.04-2.13-3.36-4.64-4.02-7.51s-.69-5.73-.52-8.61c.18-3.02.51-6.08,1.13-9.05s1.86-5.87,3.6-8.49c1.63-2.44,3.53-4.69,5.16-7.13,3.03-4.52,5.18-10.31,2.68-15.56-1.91-4.02-5.76-6.59-9.21-9.19-2.08-1.56-4.16-3.19-5.77-5.25-1.83-2.35-2.89-5.14-3.37-8.06-1-6.17.45-12.56,2.09-18.49.37-1.34-2.59-1-2.93.24h0Z"/>
  <path class="cls-8" d="m330.01,454.84c-2.07,9.91-3.47,22.13,4.7,29.76,3.31,3.1,7.43,5.13,10.83,8.12,1.63,1.43,3.07,3.16,3.84,5.2,1.11,2.93.81,6.12-.21,9.03-2.02,5.77-6.54,10.22-8.69,15.93-1.12,2.99-1.57,6.14-1.79,9.31-.2,2.89-.3,5.8-.13,8.69.35,5.72,2.04,10.94,6.39,14.86,2.5,2.25,5.27,4.24,7.91,6.31s5.37,4.19,8.05,6.3c4.85,3.8,9.88,8.06,11.26,14.37,1.23,5.64-.45,11.91-4.7,15.87-.51.48-.2,1.15.37,1.36.71.28,1.53-.06,2.05-.55,3.7-3.45,5.67-8.59,5.6-13.62-.08-5.6-2.69-10.37-6.63-14.23-4.44-4.34-9.65-7.95-14.52-11.76-2.7-2.11-5.67-4.1-8.04-6.58-1.98-2.08-3.26-4.58-3.98-7.35s-.93-5.75-.91-8.65c.02-3.14.17-6.33.67-9.43s1.61-6.04,3.22-8.81,3.36-5.1,4.84-7.78c2.72-4.91,4.17-10.85,1.23-15.99-2.27-3.96-6.46-6.35-10.1-8.87-2.15-1.49-4.27-3.09-5.89-5.16-1.85-2.36-2.95-5.16-3.52-8.08-1.18-6.11-.16-12.49,1.1-18.5.29-1.39-2.67-1.02-2.93.24h0Z"/>
  <polygon class="cls-5" points="504.6 367.96 320.86 459 504.9 371.07 504.6 367.96"/>
  <path class="cls-16" d="m272.98,598.73H101.11c2.11,12.95,8.05,38.34,27.13,63.76,21.28,28.35,47.36,41.35,59.55,46.51h90.13s80.25,0,80.25,0c12.19-5.16,38.27-18.16,59.55-46.51,19.08-25.42,25.01-50.81,27.13-63.76h-171.87"/>
  <path class="cls-14" d="m341.53,329.32c-4.17,2.91-8.33,5.82-12.5,8.74-9.82-2.04-17.3-8.86-18.79-17.17-1.35-7.55,2.73-13.62,3.71-15.08,6.44-9.58,17.68-10.56,19.25-10.67,2.75-.57,9.74-1.61,16.76,2.04,2.2,1.14,5.98,3.11,8.24,7.56,3.24,6.38.62,13.06.62,13.06l-17.3,11.52Z"/>
  <path class="cls-11" d="m339.39,317.54c-4.67,3.8-7,5.7-6.7,7.87.28,1.97,2.42,2.58,2.11,3.66-.46,1.62-6.04,2.64-7.56.63-2.09-2.78,3.19-11.07,9.45-15.74,1.99-1.48,7.4-5.59,11.97-3.78.31.12,3.23,1.33,3.67,3.84.26,1.51-.38,3.42-1.46,3.71-.64.18-1.32-.29-2.66-1.24-1.79-1.27-1.86-1.8-2.59-2.09-.92-.37-2.25-.09-6.23,3.14Z"/>
  <text class="cls-4" transform="translate(170.59 417.4)"><tspan x="0" y="0">1 kogt æg </tspan></text>
  <path class="cls-14" d="m398.68,350.83c-4.62,2.12-9.24,4.25-13.86,6.37-9.3-3.76-15.45-11.8-15.43-20.24.02-7.67,5.12-12.92,6.34-14.17,8.04-8.28,19.28-7.24,20.85-7.07,2.81-.07,9.87.15,16.13,5,1.96,1.52,5.33,4.13,6.76,8.91,2.05,6.85-1.72,12.96-1.72,12.96l-19.08,8.25Z"/>
  <path class="cls-11" d="m398.68,338.85c-5.27,2.9-7.91,4.36-7.99,6.55-.08,1.99,1.92,2.97,1.42,3.97-.75,1.52-6.41,1.53-7.55-.73-1.56-3.11,5.11-10.32,12.1-13.81,2.22-1.11,8.28-4.18,12.45-1.58.28.18,2.94,1.89,2.92,4.43-.01,1.53-.99,3.29-2.1,3.39-.66.06-1.25-.53-2.39-1.7-1.54-1.57-1.51-2.11-2.17-2.52-.84-.53-2.2-.49-6.69,1.98Z"/>
  <path class="cls-14" d="m338.52,385.19c-4.74-1.83-9.49-3.65-14.23-5.48-3.8-9.28-2.32-19.3,3.73-25.17,5.5-5.34,12.83-5.35,14.58-5.35,11.54-.02,18.64,8.76,19.61,10,2.01,1.96,6.77,7.17,7.68,15.04.28,2.47.76,6.7-1.66,11.06-3.47,6.25-10.48,7.81-10.48,7.81l-19.22-7.91Z"/>
  <path class="cls-11" d="m347.1,376.83c-5.76-1.75-8.64-2.62-10.27-1.15-1.48,1.33-.79,3.45-1.85,3.79-1.61.52-5.57-3.53-4.75-5.91,1.13-3.29,10.96-3.54,18.33-.97,2.34.82,8.77,3.02,9.82,7.81.07.33.7,3.42-1.14,5.19-1.1,1.06-3.05,1.59-3.9.86-.5-.43-.49-1.26-.45-2.9.05-2.2.45-2.55.29-3.32-.21-.97-1.18-1.92-6.09-3.41Z"/>
  <text class="cls-4" transform="translate(335.71 411.65)"><tspan x="0" y="0">3 store svampe</tspan></text>
  <path class="cls-13" d="m168.49,477.19s15.66,1.69,18.2,0c2.54-1.69,0-16.08,0-16.08-6.07.14-12.13.28-18.2.42.31,2.09.54,4.48.58,7.11.04,3.23-.21,6.1-.58,8.55Z"/>
  <line class="cls-13" x1="168.71" y1="465.41" x2="187.23" y2="464.76"/>
  <line class="cls-13" x1="169.07" y1="469.52" x2="187.72" y2="469.52"/>
  <line class="cls-13" x1="168.8" y1="473.34" x2="187.79" y2="473.34"/>
  <path class="cls-13" d="m177.39,512.64s-14.38,6.43-17.31,5.6c-2.94-.83-4.95-15.3-4.95-15.3,5.82-1.73,11.63-3.47,17.45-5.2.35,2.08.86,4.43,1.64,6.95.95,3.08,2.08,5.74,3.18,7.95Z"/>
  <line class="cls-13" x1="173.55" y1="501.51" x2="155.73" y2="506.58"/>
  <line class="cls-13" x1="174.47" y1="505.53" x2="156.74" y2="511.27"/>
  <line class="cls-13" x1="175.91" y1="509.08" x2="157.84" y2="514.92"/>
  <path class="cls-13" d="m200.81,525.2s11.13,4.68,13.44,3.53c2.31-1.14,4.09-15.55,4.09-15.55-4.52-1.04-9.03-2.08-13.55-3.13-.3,2.08-.74,4.43-1.38,6.99-.79,3.13-1.71,5.86-2.6,8.15Z"/>
  <line class="cls-13" x1="203.97" y1="513.85" x2="217.81" y2="516.82"/>
  <line class="cls-13" x1="203.19" y1="517.9" x2="216.95" y2="521.52"/>
  <line class="cls-13" x1="202.01" y1="521.54" x2="216.03" y2="525.23"/>
  <text class="cls-4" transform="translate(162.75 563.49)"><tspan x="0" y="0">1 hel forårsløg </tspan></text>
  <path class="cls-13" d="m189.73,500.07s8.32,3.94,10.17,2.68c1.85-1.26,4.09-15.55,4.09-15.55-3.43-.76-6.85-1.51-10.28-2.27-.36,2.06-.84,4.41-1.49,6.96-.8,3.13-1.67,5.87-2.5,8.18Z"/>
  <line class="cls-13" x1="192.85" y1="488.72" x2="203.37" y2="490.81"/>
  <line class="cls-13" x1="192" y1="492.75" x2="202.43" y2="495.49"/>
  <line class="cls-13" x1="190.88" y1="496.4" x2="201.49" y2="499.19"/>
  <path class="cls-13" d="m192.26,535.27s-8.32,3.94-10.17,2.68c-1.85-1.26-4.09-15.55-4.09-15.55,3.43-.76,6.85-1.51,10.28-2.27.36,2.06.84,4.41,1.49,6.96.8,3.13,1.67,5.87,2.5,8.18Z"/>
  <line class="cls-13" x1="189.14" y1="523.91" x2="178.62" y2="526"/>
  <line class="cls-13" x1="189.98" y1="527.94" x2="179.56" y2="530.68"/>
  <line class="cls-13" x1="191.11" y1="531.6" x2="180.49" y2="534.39"/>
  <text class="cls-2"><tspan x="128.91" y="90.86">MISO SUPPE</tspan></text>
  <text class="cls-6" transform="translate(206.07 133.53)"><tspan x="0" y="0">味</tspan><tspan class="cls-1" x="29.17" y="0">噌</tspan><tspan class="cls-7" x="57.17" y="0">ス</tspan><tspan class="cls-23" x="85.46" y="0">ー</tspan><tspan x="112.59" y="0">プ</tspan></text>
  <g>
    <path class="cls-9" d="m183.62,199.97c15.28,1.03,22.23-23.51,34.44-21.59,6.01.94,12.19,8.12,11.05,13.44-1.67,7.82-13.73,10.99-13.49,18.98.09,2.92,1.94,5.46,3.71,7.79,2.64,3.47,5.29,6.94,7.93,10.41,1.9,2.49,3.91,5.47,3.12,8.5-1.18,4.56-7.24,5.3-11.95,5.11-4.88-.2-9.77-.4-14.65-.61-3.66-.15-7.6-.23-10.66,1.8-2.46,1.64-3.92,4.37-5.78,6.66-6.58,8.09-19.4,10.24-28.26,4.72-2.05-1.28-3.96-3-4.77-5.28-1.38-3.91.77-8.07,1.48-12.16,2.68-15.49-7.7-23.74-1.72-33.57,3.99-6.57,12.82-7.77,13.97-7.91,7.35-.89,9.43,3.29,15.56,3.7Z"/>
    <path class="cls-3" d="m183.62,200.59c7.45.43,13.08-5,17.74-10.12,2.42-2.66,4.73-5.45,7.42-7.83,2.23-1.98,4.94-3.79,8.04-3.75,4.7.06,9.2,4.07,11.02,8.2,1.93,4.37-.41,8.02-3.57,11-2.76,2.6-6.17,4.83-8.09,8.18-.93,1.63-1.35,3.48-1.11,5.35.36,2.78,2.08,5.11,3.73,7.28,2.05,2.7,4.11,5.4,6.17,8.1,1.85,2.43,4.39,5.08,4.9,8.21.95,5.84-6.32,6.85-10.49,6.8-6.42-.08-12.88-.9-19.3-.69-2.65.09-5.38.57-7.58,2.16-2.04,1.47-3.39,3.61-4.86,5.59-5.99,8.05-17.7,10.97-26.73,6.41-2.45-1.24-5.01-3.07-5.97-5.75-1.1-3.04.11-6.32.9-9.28,1.33-5.02,1.31-10.17.23-15.23-.85-4.01-2.43-7.87-3.05-11.93s.53-8.29,3.61-11.3c2.74-2.67,6.48-4.18,10.19-4.89,1.62-.31,3.29-.43,4.93-.21,2.11.28,3.98,1.19,5.9,2.06s3.85,1.49,5.97,1.66c.8.06.8-1.19,0-1.25-4.68-.38-8.42-3.68-13.17-3.82-3.2-.09-6.51.79-9.41,2.08-4.05,1.8-7.5,4.95-8.87,9.27-1.19,3.74-.33,7.63.7,11.3,1.31,4.64,2.72,9.22,2.76,14.09.03,3.22-.57,6.26-1.41,9.35-.76,2.8-1.49,5.82-.43,8.64,1.78,4.72,7.46,7.35,12.11,8.22s9.78.27,14.21-1.74c2.22-1,4.29-2.38,6.05-4.07,1.99-1.91,3.34-4.32,5.15-6.38,4.54-5.18,12.22-3.67,18.34-3.41,3.34.14,6.7.39,10.04.39,2.32,0,4.75-.22,6.92-1.08,1.86-.74,3.48-2.01,4.19-3.94,1-2.72-.21-5.52-1.73-7.79-1.92-2.88-4.17-5.57-6.27-8.32-1.97-2.58-4.31-5.13-5.71-8.08-2.3-4.83.73-8.59,4.22-11.69,2.98-2.65,6.54-5.2,8-9.07,1.68-4.46-1.06-9.13-4.35-12.05-2.96-2.63-6.95-4.35-10.91-3.21-3.12.9-5.69,3.16-7.93,5.41-5.21,5.23-9.79,12.5-17.02,15.12-1.77.64-3.61.9-5.49.79-.8-.05-.8,1.2,0,1.25Z"/>
  </g>
  <text class="cls-4" transform="translate(161.22 272.29)"><tspan x="0" y="0">1 tsk miso paste </tspan></text>
  <rect class="cls-15" x="343.69" y="182.52" width="62.84" height="62.84" rx="7.34" ry="7.34" transform="translate(683.62 516.12) rotate(-165.29)"/>
  <path class="cls-15" d="m333.75,235.57l47.65,12.51c3.63.95,7.34-1.22,8.29-4.84l12.51-47.65c.42-1.59.24-3.19-.4-4.58-.82-1.77-2.4-3.18-4.44-3.72l-47.65-12.51c-3.63-.95-7.34,1.22-8.29,4.84l-12.51,47.65c-.95,3.63,1.22,7.34,4.84,8.29Z"/>
  <line class="cls-17" x1="411.38" y1="197.03" x2="401.79" y2="194.46"/>
  <line class="cls-17" x1="398.66" y1="247.2" x2="389.07" y2="244.62"/>
  <text class="cls-4" transform="translate(328.18 268.8)"><tspan x="0" y="0">1 grøntsagsbouillon</tspan></text>
  <text class="cls-4" transform="translate(280.99 589.24)"><tspan x="0" y="0">1 pakke nudler</tspan></text>
  <path class="cls-3" d="m210.03,194.94c.8,0,.81-1.25,0-1.25s-.81,1.25,0,1.25h0Z"/>
  <path class="cls-3" d="m170.65,232.53c.8,0,.81-1.25,0-1.25s-.81,1.25,0,1.25h0Z"/>
  <path class="cls-3" d="m202.87,235.34c.8,0,.81-1.25,0-1.25s-.81,1.25,0,1.25h0Z"/>
  <path class="cls-3" d="m187.53,213.09c.8,0,.81-1.25,0-1.25s-.81,1.25,0,1.25h0Z"/>
  <path class="cls-3" d="m165.54,249.41c.8,0,.81-1.25,0-1.25s-.81,1.25,0,1.25h0Z"/>
  <path class="cls-3" d="m190.34,233.81c.8,0,.81-1.25,0-1.25s-.81,1.25,0,1.25h0Z"/>
  <path class="cls-3" d="m216.68,225.37c.8,0,.81-1.25,0-1.25s-.81,1.25,0,1.25h0Z"/>
  <path class="cls-3" d="m220.26,234.83c.8,0,.81-1.25,0-1.25s-.81,1.25,0,1.25h0Z"/>
  <path class="cls-3" d="m199.8,204.91c.8,0,.81-1.25,0-1.25s-.81,1.25,0,1.25h0Z"/>
  <path class="cls-3" d="m179.35,228.44c.8,0,.81-1.25,0-1.25s-.81,1.25,0,1.25h0Z"/>
  <path class="cls-3" d="m157.87,209.26c.8,0,.81-1.25,0-1.25s-.81,1.25,0,1.25h0Z"/>
  <path class="cls-3" d="m193.15,223.07c.8,0,.81-1.25,0-1.25s-.81,1.25,0,1.25h0Z"/>
  <path class="cls-3" d="m179.09,211.05c.8,0,.81-1.25,0-1.25s-.81,1.25,0,1.25h0Z"/>
  <path class="cls-3" d="m210.03,216.93c.8,0,.81-1.25,0-1.25s-.81,1.25,0,1.25h0Z"/>
  <path class="cls-3" d="m221.28,189.31c.8,0,.81-1.25,0-1.25s-.81,1.25,0,1.25h0Z"/>
  <path class="cls-3" d="m173.46,206.19c.8,0,.81-1.25,0-1.25s-.81,1.25,0,1.25h0Z"/>
  <path class="cls-3" d="m181.14,247.36c.8,0,.81-1.25,0-1.25s-.81,1.25,0,1.25h0Z"/>
  <path class="cls-3" d="m163.75,226.14c.8,0,.81-1.25,0-1.25s-.81,1.25,0,1.25h0Z"/>
  <path class="cls-3" d="m169.12,220c.8,0,.81-1.25,0-1.25s-.81,1.25,0,1.25h0Z"/>
  <path class="cls-3" d="m200.25,212.93c.8,0,.81-1.25,0-1.25s-.81,1.25,0,1.25h0Z"/>
  <path class="cls-3" d="m182.72,221.39c.8,0,.81-1.25,0-1.25s-.81,1.25,0,1.25h0Z"/>
  <path class="cls-3" d="m171.84,243.15c.8,0,.81-1.25,0-1.25s-.81,1.25,0,1.25h0Z"/>
  <path class="cls-3" d="m205.69,226.83c.8,0,.81-1.25,0-1.25s-.81,1.25,0,1.25h0Z"/>
  <rect class="cls-16" x="98.08" y="583.02" width="349.39" height="15.71"/>
  <path class="cls-19" d="m429.38,623.37c-4.2,11.4-12.79,30.05-30.17,47.71-12.18,12.37-24.62,20.15-33.86,24.91"/>
  <path class="cls-11" d="m157.58,322.14c7.14,3.34,10.96,8.71,15.46,15.05,2.71,3.82,6.24,8.8,8.52,16.18,1.94,6.32,5.99,19.47-1.19,29.73-5.53,7.9-14.71,9.79-18.71,10.61-2.78.57-16.59,3.42-27.08-5.24-8.06-6.64-9.42-16.16-10.49-23.61-1.95-13.59-.67-38.89,13.91-44.72,8.25-3.3,17.4.98,19.59,2Z"/>
  <line class="cls-19" x1="105.69" y1="592.79" x2="168.49" y2="592.79"/>
  <circle class="cls-10" cx="155.36" cy="368.08" r="13.78"/>
  <path class="cls-11" d="m221.28,314.91c-7.14,3.34-10.96,8.71-15.46,15.05-2.71,3.82-6.24,8.8-8.52,16.18-1.94,6.32-5.99,19.47,1.19,29.73,5.53,7.9,14.71,9.79,18.71,10.61,2.78.57,16.59,3.42,27.08-5.24,8.06-6.64,9.42-16.16,10.49-23.61,1.95-13.59.67-38.89-13.91-44.72-8.25-3.3-17.4.98-19.59,2Z"/>
  <circle class="cls-10" cx="223.5" cy="360.84" r="13.78"/>
  <path class="cls-22" d="m158.79,357.53c.71,0,2.24.12,3.7,1.14,2.72,1.91,2.71,5.24,2.71,5.8,0,.48,0,1.26-.27,1.33-.58.16-1.06-3.43-3.69-5.52-2.56-2.03-5.9-1.64-5.88-2.09,0-.18.57-.43,3.43-.66Z"/>
  <path class="cls-22" d="m232.79,366.11c-.29.73-1,2.26-2.55,3.39-2.89,2.12-6.05.94-6.58.74-.45-.17-1.19-.44-1.15-.74.08-.65,3.68.12,6.7-1.84,2.95-1.91,3.89-5.47,4.31-5.29.17.07.19.73-.73,3.75Z"/>
  <path class="cls-12" d="m200.76,525.23c-.81-1.51-2.37-4.97-1.5-9.01.12-.56,1.26-5.61,4.21-6.32.31-.07.66-.15.95.03.42.27.95,1.22-1.28,8.41-.53,1.69-1.28,3.96-2.3,6.63"/>
  <path class="cls-21" d="m203.59,511.33c-.66.49-2.07,1.68-2.86,3.74-1.19,3.13-.02,5.91.25,6.5"/>
  <path class="cls-21" d="m202.85,513.87c-.36.4-1,1.22-1.33,2.46-.36,1.36-.14,2.48,0,3"/>
  <circle class="cls-12" cx="153.15" cy="484.22" r="7.99"/>
  <path class="cls-21" d="m147.52,485.23c-.58-3,1.14-5.92,3.85-6.8,3.22-1.05,6.73,1.15,7.42,4.26.77,3.44-2.04,6.88-4.95,7.01-1.62.07-3.15-.88-4.02-2.12-1.19-1.71-1.42-4.41.17-6.06,1.88-1.95,5.6-1.69,6.67.14,1.07,1.84-.49,5.31-2.65,5.6-1.08.15-2.54-.48-3.04-1.78-.4-1.03-.17-2.43.84-3.14,1.07-.76,2.86-.64,3.4.42.39.75.07,1.86-.68,2.41-.54.4-1.47.62-1.86.2-.38-.4-.26-1.4.55-2.24"/>
  <circle class="cls-12" cx="208.82" cy="469.52" r="8.01"/>
  <path class="cls-21" d="m203.17,470.54c-.58-3.01,1.15-5.94,3.86-6.82,3.23-1.05,6.74,1.15,7.44,4.27.77,3.45-2.04,6.9-4.96,7.03-1.62.07-3.16-.88-4.03-2.13-1.2-1.72-1.43-4.42.17-6.07,1.89-1.96,5.61-1.7,6.68.14,1.08,1.84-.49,5.33-2.65,5.62-1.09.15-2.54-.48-3.05-1.79-.4-1.04-.17-2.43.84-3.15,1.08-.76,2.87-.64,3.41.42.39.76.07,1.87-.68,2.42-.55.4-1.48.62-1.87.2-.38-.4-.26-1.41.56-2.25"/>
  <circle class="cls-12" cx="158.38" cy="535.31" r="7.37"/>
  <path class="cls-21" d="m153.19,536.24c-.53-2.77,1.05-5.46,3.55-6.27,2.97-.97,6.2,1.06,6.84,3.93.71,3.17-1.88,6.34-4.56,6.46-1.49.07-2.91-.81-3.71-1.96-1.1-1.58-1.31-4.06.16-5.58,1.74-1.8,5.16-1.56,6.15.13.99,1.7-.45,4.9-2.44,5.17-1,.14-2.34-.44-2.8-1.64-.37-.95-.15-2.24.77-2.9.99-.7,2.64-.59,3.14.38.36.69.06,1.72-.63,2.22-.5.37-1.36.57-1.72.19-.35-.37-.24-1.29.51-2.07"/>
  <path class="cls-24" d="m341.72,233.04c-1.71-.45-3.42-.9-5.12-1.35-.75-.2-2.61-1.66-3.04-3.8-.17-.85.03-1.35,1.01-4.68.46-1.55.82-2.79,1.03-3.53.05-.09,1-1.72,1.51-1.55.46.16.33,1.7.32,1.86-.06.7-.23,1.19-.46,1.82-.59,1.67-.88,2.51-.96,2.82-.26,1.08-.56,2.31-.02,3.42.51,1.04,1.52,1.52,3.02,2.23,1.01.47,1.15.38,2.32.91.13.06,2.93,1.35,2.78,1.82-.1.31-1.47.27-2.4.02Z"/>
</svg>